<svg xmlns="http://www.w3.org/2000/svg" xmlns:xlink="http://www.w3.org/1999/xlink" viewBox="0 0 186.27 183.08"><defs><style>.cls-1,.cls-27{fill:none;}.cls-2{clip-path:url(#clip-path);}.cls-3{fill:url(#linear-gradient);}.cls-4{fill:#fff200;}.cls-5{fill:#39ac00;}.cls-6{fill:#6b02cd;}.cls-7{fill:#ef1212;}.cls-8{fill:#350d05;}.cls-9{fill:#160004;}.cls-10{fill:#ff7e00;}.cls-11{fill:#ff7800;}.cls-12{fill:#ff7200;}.cls-13{fill:#0d7a00;}.cls-14{fill:#050001;}.cls-15{fill:#395500;}.cls-16{fill:#395100;}.cls-17{fill:#0d3c00;}.cls-18{fill:#0e3901;}.cls-19{fill:#ff3b00;}.cls-20{fill:#6b0100;}.cls-21{fill:#64000e;}.cls-22{fill:#392800;}.cls-23{fill:#0d1c00;}.cls-24{fill:#180000;}.cls-25{fill:#0c0900;}.cls-26{fill:#fff;}.cls-27{stroke:#fff;stroke-miterlimit:10;stroke-width:0.28px;}</style><clipPath id="clip-path"><path class="cls-1" d="M19.48,97.5A72.85,72.85,0,1,0,92.34,24.64,72.86,72.86,0,0,0,19.48,97.5"/></clipPath><linearGradient id="linear-gradient" x1="-611.33" y1="-143.33" x2="-610.45" y2="-143.33" gradientTransform="matrix(0, 164.3, 164.3, 0, 23642.4, 100467.77)" gradientUnits="userSpaceOnUse"><stop offset="0" stop-color="#01b7fb"/><stop offset="1" stop-color="#0154ed"/></linearGradient></defs><title>Spota-logo</title><g id="Layer_2" data-name="Layer 2"><g id="Layer_1-2" data-name="Layer 1"><g class="cls-2"><rect class="cls-3" x="19.48" y="24.64" width="145.71" height="145.71"/></g><path class="cls-4" d="M185.45,94.39a77,77,0,0,1-9.83,33.35,77.13,77.13,0,0,1-8.4,17.61,77.61,77.61,0,0,1-47.35,37,77.5,77.5,0,0,0,65.58-87.91"/><path class="cls-4" d="M94,6a77.08,77.08,0,0,1,38.19,10.06,77.21,77.21,0,0,1,22.54,11.76A77.43,77.43,0,0,0,45.28,18.3a76.88,76.88,0,0,1,16.86-5.46A77.15,77.15,0,0,1,94,6"/><path class="cls-5" d="M167.22,145.35a77.37,77.37,0,0,1-65.16,35.58q-2.15,0-4.26-.12-1.9.47-3.83.85a78.22,78.22,0,0,0,25.9.65,77.6,77.6,0,0,0,47.35-37"/><path class="cls-6" d="M45.28,18.3a77.55,77.55,0,0,0-43.6,86.55A77.13,77.13,0,0,1,21.46,53.95q.83-.92,1.68-1.82a77.72,77.72,0,0,1,39-39.29A76.86,76.86,0,0,0,45.28,18.3"/><path class="cls-7" d="M39.4,156.22A77.54,77.54,0,0,1,1.68,104.84c0,.27,0,.54,0,.81A77.43,77.43,0,0,0,79.1,183.08q1.58,0,3.15-.06a77.43,77.43,0,0,1-42.85-26.8"/><path class="cls-8" d="M82,178.29a77.24,77.24,0,0,1-31.26-16.84,77,77,0,0,1-11.31-5.23A77.43,77.43,0,0,0,82.25,183,77.57,77.57,0,0,0,94,181.66q1.93-.38,3.83-.85A77.3,77.3,0,0,1,82,178.29"/><path class="cls-9" d="M35.51,143.1a72.72,72.72,0,0,1-12.14-22,77.09,77.09,0,0,0,16,35.17,77.12,77.12,0,0,0,11.31,5.23,77.82,77.82,0,0,1-15.2-18.36"/><path class="cls-10" d="M185.45,94.39q.14-2.33.14-4.69a77.31,77.31,0,0,0-30.87-61.87,77.19,77.19,0,0,1,15.7,30.89,77,77,0,0,1,15,35.68"/><path class="cls-11" d="M172.45,71.19a77.71,77.71,0,0,1,3.17,56.54,77,77,0,0,0,9.83-33.35,77,77,0,0,0-15-35.68,77.29,77.29,0,0,1,2,12.48"/><path class="cls-11" d="M164.86,52.21a77.93,77.93,0,0,1,5.56,6.5,77.19,77.19,0,0,0-15.7-30.89,77.2,77.2,0,0,0-22.54-11.76,77.73,77.73,0,0,1,32.68,36.14"/><path class="cls-12" d="M172.45,71.19a77.29,77.29,0,0,0-2-12.48,77.94,77.94,0,0,0-5.56-6.5,76.86,76.86,0,0,1,4.31,12.65q1.78,3.08,3.27,6.34"/><path class="cls-5" d="M167.22,145.35a77.13,77.13,0,0,0,8.4-17.61q-1.15,2-2.41,4a77.11,77.11,0,0,1-6,13.62"/><path class="cls-13" d="M130,164a77.23,77.23,0,0,1-32.2,16.81q2.12.11,4.26.12a77.36,77.36,0,0,0,65.16-35.58,76.89,76.89,0,0,0,6-13.62A77.6,77.6,0,0,1,130,164"/><path class="cls-14" d="M51.86,158.08a73.28,73.28,0,0,1-16.34-15,77.78,77.78,0,0,0,15.2,18.36q3.31,1.22,6.75,2.13a77.18,77.18,0,0,0,8.12,1.7,72.66,72.66,0,0,1-13.73-7.2"/><path class="cls-15" d="M172.45,71.19q.25,3.08.25,6.24,0,2.08-.11,4.14a77.8,77.8,0,0,1,.62,50.15q1.26-2,2.41-4a77.71,77.71,0,0,0-3.17-56.54"/><path class="cls-16" d="M171.23,78q.72,1.75,1.36,3.53.11-2.06.11-4.14,0-3.15-.25-6.24-1.49-3.25-3.27-6.34A77.35,77.35,0,0,1,171.23,78"/><path class="cls-17" d="M173.2,131.72a77.8,77.8,0,0,0-.62-50.15,77.4,77.4,0,0,1-2.3,15.08,76.93,76.93,0,0,1-9.62,26.14,72.94,72.94,0,0,1-18.64,28A77.89,77.89,0,0,1,130,164a77.6,77.6,0,0,0,43.2-32.28"/><path class="cls-18" d="M171.42,83.43a77.92,77.92,0,0,1-1.13,13.22,77.27,77.27,0,0,0,2.3-15.08Q172,79.78,171.23,78q.18,2.67.19,5.4"/><path class="cls-11" d="M95.13,13.36a78,78,0,0,1,37,2.7,77.58,77.58,0,0,0-70-3.22,78.1,78.1,0,0,1,33,.52"/><path class="cls-19" d="M95.13,13.36A77.22,77.22,0,0,1,128.78,30.8l.15.06a77.7,77.7,0,0,1,40.25,34,76.91,76.91,0,0,0-4.31-12.65,77.74,77.74,0,0,0-32.68-36.14,78,78,0,0,0-37-2.7"/><path class="cls-20" d="M95.13,13.36a78.1,78.1,0,0,0-33-.52,77.72,77.72,0,0,0-39,39.29A77.07,77.07,0,0,1,67,29.17a73.29,73.29,0,0,1,40.76-2.89,77.08,77.08,0,0,1,21,4.52A77.22,77.22,0,0,0,95.13,13.36"/><path class="cls-21" d="M57.26,31.35A77.4,77.4,0,0,0,23.15,52.13Q22.29,53,21.46,54A77.13,77.13,0,0,0,1.67,104.84,77.55,77.55,0,0,0,39.4,156.22a77.1,77.1,0,0,1-16-35.17A72.42,72.42,0,0,1,20,106.38a73.47,73.47,0,0,1-.54-8.88q0-1.86.09-3.71A72.93,72.93,0,0,1,67,29.17a77.07,77.07,0,0,0-9.74,2.18"/><path class="cls-11" d="M128.93,30.86l-.15-.06,0,0,.12,0"/><path class="cls-22" d="M137.65,40.08a77.73,77.73,0,0,1,33.58,38,77.32,77.32,0,0,0-2.06-13.18,77.68,77.68,0,0,0-40.25-34l-.12,0a77.84,77.84,0,0,1,8.85,9.26"/><path class="cls-23" d="M171.23,78a77.72,77.72,0,0,0-33.58-38l.8,1a72.89,72.89,0,0,1,22.23,81.7,76.93,76.93,0,0,0,9.62-26.14,77.93,77.93,0,0,0,1.12-13.22q0-2.72-.19-5.4"/><path class="cls-24" d="M137.65,40.08a77.84,77.84,0,0,0-8.85-9.26l0,0a77.08,77.08,0,0,0-21-4.52A72.5,72.5,0,0,1,136,39.2q1.22.92,2.41,1.89l-.8-1"/><path class="cls-25" d="M114.71,166.85h0a73.18,73.18,0,0,1-49.12-1.57,77.18,77.18,0,0,1-8.12-1.7q-3.44-.92-6.75-2.13A77.09,77.09,0,0,0,97.8,180.81a77.6,77.6,0,0,0,44.24-30,72.81,72.81,0,0,1-27.33,16.09"/><polygon class="cls-26" points="150.79 111.18 150.79 110.42 150.52 110.42 150.52 110.2 151.32 110.2 151.32 110.42 151.05 110.42 151.05 111.18 150.79 111.18"/><polygon class="cls-26" points="152.3 111.18 152.3 110.54 152.05 111.18 151.94 111.18 151.69 110.54 151.69 111.18 151.44 111.18 151.44 110.2 151.79 110.2 152 110.73 152.2 110.2 152.56 110.2 152.56 111.18 152.3 111.18"/><path class="cls-27" d="M151.55,112.29a1.65,1.65,0,1,1,1.65-1.65,1.65,1.65,0,0,1-1.65,1.65"/><path class="cls-26" d="M31.48,107.22l4.29-6.07a14.19,14.19,0,0,0,10,4.14c2.78,0,4.47-1.08,4.47-2.59,0-4.29-17.8-.85-17.8-12.95,0-5.27,4.47-10,12.53-10a19.16,19.16,0,0,1,12.76,4.38l-4.43,5.79a14.79,14.79,0,0,0-9.18-3.25c-2.35,0-3.39.94-3.39,2.26,0,4,17.75,1.08,17.75,12.76,0,6.31-4.66,10.5-13.09,10.5-6.36,0-10.78-2-13.94-5"/><path class="cls-26" d="M74.17,88.34a8.48,8.48,0,0,0-6.73,3.2V88.91H60.19v31.41h7.25V109a8.45,8.45,0,0,0,6.73,3.25c5.7,0,10-4.24,10-12S79.87,88.34,74.17,88.34Zm-2.4,17.47a6,6,0,0,1-4.33-2.07V96.82a5.79,5.79,0,0,1,4.33-2.07c2.83,0,5,2.12,5,5.51S74.6,105.81,71.77,105.81Z"/><path class="cls-26" d="M97.8,88.34c-7.72,0-12.38,5.51-12.38,11.91s4.66,12,12.38,12,12.43-5.56,12.43-12S105.62,88.34,97.8,88.34Zm0,17.47c-3.16,0-4.9-2.5-4.9-5.56s1.74-5.51,4.9-5.51,5,2.5,5,5.51S101,105.81,97.8,105.81Z"/><path class="cls-26" d="M138.37,88.34a16,16,0,0,0-10.31,3.53l2.59,4.57a10.14,10.14,0,0,1,6.45-2.4c2.92,0,4.61,1.32,4.61,3.3v2.73c-1.37-1.7-4.05-2.64-7.06-2.64s-6.64,1.34-7.58,5.24a4.53,4.53,0,0,1-2,2.65,3.65,3.65,0,0,1-1.86.49,2.06,2.06,0,0,1-2-2.31V95.22h4.61V88.91H121.2V82.69H114v6.22h-3.77v6.31H114v10.31c0,4.38,2.5,6.69,7.11,6.69,2.68,0,4.29-.61,5.22-1.38a5.73,5.73,0,0,0,1.53-2.23,8,8,0,0,0,6.79,3.61,9.4,9.4,0,0,0,7.06-2.82v2.26H149V97.43C149,90.37,143.83,88.34,138.37,88.34Zm3.34,17.47a5,5,0,0,1-4.05,1.65c-1.93,0-3.63-.85-3.63-2.64s1.7-2.64,3.63-2.64a5.18,5.18,0,0,1,4.05,1.6Z"/></g></g></svg>